<?xml version="1.0" encoding="UTF-8"?>
<svg id="Capa_2" data-name="Capa 2" xmlns="http://www.w3.org/2000/svg" viewBox="0 0 32.58 32.54">
  <defs>
    <style>
      .cls-1 {
        fill: #245426;
      }
    </style>
  </defs>
  <g id="Capa_1-2" data-name="Capa 1">
    <path class="cls-1" d="M0,22.31c.3-1.74,1.41-3.15,3.08-3.75,1.29-.47,2.75-.68,4.04-1.18v-1.03c-1.87-.78-3.09-2.69-3.06-4.7-1.94-.53-2.06-3.29-.12-3.88-.26-1.18-1.02-2.52-.65-3.73C3.92,1.92,6.45.18,8.61.02c2.59-.19,5.5,1.4,6.37,3.92.43,1.26-.35,2.6-.62,3.83,1.95.6,1.82,3.34-.12,3.89.02,2.01-1.19,3.93-3.05,4.7v1.03c1.27.49,2.7.71,3.98,1.16.81.29,1.43.73,2.02,1.35.14.15.33.55.51.57l3.66-1.11v-.98c-1.87-.78-3.09-2.69-3.06-4.7-1.6-.41-2.11-2.64-.69-3.57-.41-.64-.29-1.33-.17-2.04.38-2.2,1.79-3.93,3.89-4.68.1-3.6,4.41-2.59,5.93-.47.71.99.54,1.61.93,2.5.31.7.75,1.11,1,1.98s.46,1.94-.02,2.71c.77.43.99,1.47.72,2.27-.1.29-.3.45-.38.73l1,5.67c.01.23-.13.47-.37.53-.31.07-1.4.04-1.76,0-.93-.09-1.81-.57-2.54-1.13l-.43.22v1c1.76.73,4.1.79,5.56,2.07.86.75,1.47,1.94,1.56,3.08.18,2.42-.14,5.06,0,7.5,0,.23-.16.34-.32.48H0v-10.23ZM13.53,7c.11-.87.72-1.81.48-2.67-.45-1.59-2.43-2.98-4.01-3.23-2.51-.41-5.39,1.21-5.79,3.82l.79,2.72c2.14.09,4.09-.43,5.74-1.81.38-.32.77-1.07,1.34-.58.13.11,1.38,1.83,1.46,1.75ZM24.39,3.13c.04-1.07-1.42-1.5-1.9-.53-.36.74-.05.48.4.47.5-.02,1,0,1.5.07ZM26.68,4.02c-.28-.61-.75-1.12-1.33-1.46l.07.88,1.26.58ZM22.85,4.1c-2.48.21-4.4,2.29-4.5,4.77-.02.47.02.75.54.8.87.08,3.16.09,3.98-.1.64-.15,1.3-.57,1.71-1.08.26-.32.39-.88.86-.86s.65.83.91,1.19c.48.68,2.09,1.47,2.05.11-.08-2.9-2.68-5.08-5.54-4.84ZM5.08,8.65v3.46c0,.52.46,1.52.77,1.96,1.3,1.82,3.84,2.22,5.66.92,2.26-1.61,1.64-4.32,1.66-6.72l-1.11-1.33c-.07.68-1.12,2.07-1.76,2.21-.42.09-.73-.22-.64-.64.07-.34,1.27-.91,1.26-1.51-1.69,1.17-3.78,1.83-5.84,1.65ZM4.07,8.84c-.66.26-.66,1.39,0,1.65v-1.65ZM14.23,10.5c.66-.26.66-1.39,0-1.65v1.65ZM22.71,10.69c-1.06.12-2.32-.09-3.4,0v3.46c0,.22.25,1,.35,1.24,1.11,2.6,4.67,3.22,6.64,1.18,1.6-1.65,1.05-3.86,1.14-5.94-.87-.06-1.63-.67-2.06-1.4-.39.29-.7.65-1.13.9-.38.22-1.1.51-1.54.56ZM18.29,10.88c-.66.26-.66,1.39,0,1.65v-1.65ZM28.46,12.53c.66-.26.66-1.39,0-1.65v1.65ZM28.58,13.67c-.15,0-.11-.02-.13.09-.04.33-.02.63-.09.99-.2,1.02-.79,2.07-1.58,2.72l-.04.13c.79.51,1.66.76,2.6.7l-.76-4.64ZM10.16,16.72c-.68.09-1.36.09-2.03,0-.3,2.1,2.33,2.1,2.03,0ZM14.23,31.52v-7.15c0-.2.19-.78.27-1,.38-1.07,1.16-1.94,2.14-2.49-1.29-1.78-3.85-1.73-5.75-2.49-.89,1.25-2.61,1.25-3.49,0-1.82.73-4.61.75-5.78,2.53-.25.38-.61,1.23-.61,1.68v2.83h2.7c.07,0,.35.27.35.35v5.75h10.16ZM24.39,18.75c-.68.09-1.36.09-2.03,0-.3,2.1,2.33,2.1,2.03,0ZM31.5,27.45v-2.83c0-1.55-1.4-2.71-2.75-3.16-1.19-.4-2.45-.64-3.64-1.04-.89,1.25-2.61,1.25-3.49,0-1.82.74-4.61.74-5.78,2.53-.24.37-.61,1.25-.61,1.68v2.83h2.7c.07,0,.35.27.35.35v3.72h10.16v-3.72c0-.07.27-.35.35-.35h2.7ZM3.05,26.44H1.02v5.08h2.03v-5.08ZM17.28,28.47h-2.03v3.05h2.03v-3.05ZM31.5,28.47h-2.03v3.05h2.03v-3.05Z"/>
  </g>
</svg>