<?xml version="1.0" encoding="UTF-8"?>
<svg id="Capa_2" data-name="Capa 2" xmlns="http://www.w3.org/2000/svg" viewBox="0 0 33.15 31.53">
  <defs>
    <style>
      .cls-1 {
        fill: #fff;
      }

      .cls-2 {
        fill: #71b739;
      }
    </style>
  </defs>
  <g id="Capa_1-2" data-name="Capa 1">
    <polygon class="cls-1" points="17.31 17.31 .95 17.31 .78 17.43 .78 31.52 17.46 31.52 17.46 17.42 17.31 17.31"/>
    <polygon class="cls-1" points="32.56 28.71 32.56 28.69 32.28 21.28 32.08 21.15 28.02 20.58 28.02 31.52 32.12 31.52 32.55 31.02 32.56 28.52 32.56 28.71"/>
    <polygon class="cls-1" points="30.25 31.52 17.28 31.52 17.28 20.93 29.16 21.51 30.25 31.52"/>
    <polygon class="cls-1" points="31.99 31.52 19.02 31.52 19.02 20.49 30.9 21.1 31.99 31.52"/>
    <g>
      <path class="cls-2" d="M33.15,26.03c-.16.24-.31.3-.59.36v4.77c-.14.58-.97.31-.97.01v-4.82h-1.29v4.76c0,.16-.27.38-.44.41-.48.07-.57-.43-.6-.79-.14-1.94.1-4.05.02-6.01.05-.3.2-.51.53-.51.57.01.5.78.49,1.17h1.88v-2.49s-.16-.5-.2-.57c-.13-.23-.44-.38-.67-.5-.92-.45-2.02-.76-2.97-1.17-.72,1.15-1.72,2.3-2.89,3.01-.62.37-.69.5-1.37.15-1.34-.68-2.34-1.95-3.19-3.15l-3.18,1.27c-.2.11-.6.54-.6.76v2.69h1.88c-.15-.72.19-1.65.92-.89l.04,6.61c-.1.6-.97.42-.97.07v-4.82h-1.29v4.63c0,.6-.93.79-1.03.06v-4.65c-.41-.13-.54-.2-.59-.65-.08-.76-.07-2.84.16-3.53.54-1.58,3.82-2.06,5.19-2.84.65-.37.37-1.2.38-1.83-1.16-.69-2.15-1.84-2.56-3.14-.1-.32-.16-1.1-.27-1.28-.09-.16-.3-.17-.44-.28-.26-.21-.51-.49-.62-.81-.22-.66-.13-3.14-.02-3.9.32-2.07,1.61-3.83,3.38-4.91-.23-4.21,6.97-4.18,6.71.05,1.84,1.01,3.16,3.01,3.42,5.1.06.46.11,1.3.07,1.75-.08.93-.95.9-1.04.13-.12-1.07.08-1.76-.28-2.89-1.15-3.6-5.54-5.14-8.72-3.06-1.9,1.25-2.8,3.4-2.66,5.66.32-.13.66-.09.97-.16.57-.12,1.15-.64,1.52-1.07.22-.26.55-.93.74-1.07.43-.32.87.2,1.23.39,2.66,1.4,7.19.53,7.06,4.73-.06,1.93-1.21,3.86-2.9,4.77,0,.44-.13,1.35.21,1.67.09.08.27.15.38.2,1.2.59,4.12,1.31,4.8,2.33.18.27.24.55.36.84v3.43ZM27,2.79c-.29-1.91-3.23-2.21-4.33-.94-.2.23-.46.63-.36.94,1.5-.56,3.18-.51,4.69,0ZM22.5,8.76c-.56.75-1.19,1.57-2.1,1.9-.55.2-1.66.06-1.59.88.05.53.44.57.87.68.39.37.28,1.09.42,1.65.85,3.31,4.97,4.54,7.57,2.33,1.51-1.29,2.62-4.69.33-5.7-1.69-.74-3.93-.57-5.5-1.74ZM26.41,18.01c-1.17.42-2.45.39-3.63,0v1.13c0,.29-.56,1.02-.9,1.08-.07.13.4.73.51.86.6.77,1.36,1.45,2.22,1.9,1.15-.61,2.16-1.64,2.76-2.77-.39-.05-.97-.85-.97-1.2v-1Z"/>
      <path class="cls-2" d="M8.61,19.43c-.05-.06-1.08.78-1.25.85-.66.28-.97.03-1.4-.44-.61-.66-1.28-1.58-1.84-2.3-.06-.08-.08-.25-.14-.26-.87.38-2.7.42-2.96,1.51l-.05,12.32c-.09.58-.94.53-.97-.06v-12.17c.19-2.2,3.1-2.19,4.68-2.83.38-.36.48-1.01,1.09-1.06-.03-.2.05-.5-.04-.68-.03-.06-.79-.7-.94-.88-.51-.6-.94-1.39-1.15-2.15-.06-.23-.14-.96-.21-1.07-.03-.04-.53-.29-.68-.44-.43-.45-.57-1.08-.38-1.66.09-.3.44-.6.47-.76.14-.75-.06-2.07,0-2.91C3.01,2.04,4.81.22,7.22.07c1.34-.08,3.47-.1,4.8,0,.91.07,1.48.47,1.94,1.23.31.51.34.48.71.91,1.25,1.45.38,3.45.68,5.08.04.21.35.47.45.71.33.8.02,1.54-.65,2-.09.06-.35.15-.37.18-.04.06-.16.95-.23,1.16-.34,1.2-.99,1.96-1.86,2.8-.05.05-.17.08-.18.11-.07.12.02.55-.02.72.53.08.62.62.91.91s2.21.73,2.77.92c.81.27,1.46.49,1.84,1.33.23.51.4,1.66-.48,1.39-.34-.1-.26-.51-.32-.72-.36-1.18-2.02-1.13-2.99-1.54-.09.15-.16.31-.27.45-.46.61-1.33,1.82-1.84,2.3-.17.17-.5.35-.75.36-.67.02-1.19-.75-1.78-.97v11.75c0,.45-.97.39-.97,0v-11.75ZM3.89,3.99c-.12.92.09,2.07,0,3.01h.77c.09-.07.32-1.78.47-2.1.48-1.04,1.73-.41,2.56-.31,1.31.17,2.64.09,3.92-.2.35-.08,1.16-.53,1.38-.04.29.66-.52.84-.97.97-1.9.55-4.06.37-5.98.01-.3.79-.11,2.25-1.07,2.59-.57.2-1.82-.24-1.65.87.09.58.91.41,1.06.75.11.25.06.67.11.93.85,4.71,7.15,5.45,8.94,1.12.31-.75.25-1.16.38-1.88.11-.59.76-.23,1.04-.77.36-.67-.4-.79-.46-1.18-.21-1.31.39-3.73-.39-4.79-.19-.25-.62-.47-.74-.68-.09-.15-.08-.34-.15-.49-.26-.55-.77-.69-1.34-.73-1.24-.09-4.38-.12-5.49.22s-2.23,1.57-2.38,2.73ZM11.46,14.96c-1.53.58-3.24.68-4.72-.06l.06.94,2.3,1.89,2.3-1.89.06-.88ZM5.8,16.26l-.65.97,1.66,2.1c.07.05.13.03.2,0,.08-.03,1.29-.9,1.29-.98l-2.49-2.1ZM12.5,16.26l-2.59,2.1c0,.08,1.21.95,1.29.98.09.03.16.04.23-.03l1.64-2.05-.57-.99Z"/>
      <path class="cls-2" d="M15.78,19.19c.05.05.14.21.15.28.05.41-1.04,1.99-1.16,2.52v9.06c-.06.63-.92.62-.98,0v-9.32c.03-.16,1.1-2.32,1.23-2.46.21-.25.51-.31.76-.08Z"/>
      <path class="cls-2" d="M3.58,31.39c-.1-.09-.14-.33-.15-.46-.26-2.84.2-6.06,0-8.93-.13-.6-1.11-1.89-1.14-2.41-.03-.49.58-.75.94-.24.17.24,1.15,2.23,1.18,2.45v9.39c-.1.34-.58.45-.83.21Z"/>
    </g>
    <g>
      <path class="cls-1" d="M13.42,11.58c.31-.75.25-1.16.38-1.88.11-.59.76-.23,1.04-.77.36-.67-.4-.79-.46-1.18-.21-1.31.39-3.73-.39-4.79-.19-.25-.62-.47-.74-.68-.09-.15-.08-.34-.15-.49-.26-.55-.77-.69-1.34-.73-1.24-.09-4.38-.12-5.49.22-1.11.34-2.23,1.57-2.38,2.73-.12.92.09,2.07,0,3.01h.77c.09-.07.32-1.78.47-2.1.48-1.04,1.73-.41,2.56-.31,1.31.17,2.64.09,3.92-.2.35-.08,1.16-.53,1.38-.04.29.66-.52.84-.97.97-1.9.55-4.06.37-5.98.01-.3.79-.11,2.25-1.07,2.59-.57.2-1.82-.24-1.65.87.09.58.91.41,1.06.75.11.25.06.67.11.93.85,4.71,7.15,5.45,8.94,1.12Z"/>
      <path class="cls-1" d="M27,2.8c-.28-1.91-3.23-2.21-4.33-.94-.2.23-.46.63-.36.94,1.5-.56,3.18-.51,4.69,0Z"/>
      <path class="cls-1" d="M9.91,18.37c0,.08,1.21.95,1.29.98.09.03.16.04.23-.03l1.64-2.05-.57-.99-2.59,2.1Z"/>
      <path class="cls-1" d="M11.46,14.97c-1.53.58-3.24.68-4.72-.06l.06.94,2.3,1.89,2.3-1.89.06-.88Z"/>
      <path class="cls-1" d="M21.44,4.33c-1.9,1.25-2.8,3.4-2.66,5.66.32-.13.66-.09.97-.16.57-.12,1.15-.64,1.52-1.07.22-.26.55-.93.74-1.07.43-.32.87.2,1.23.39,2.5,1.32,6.65.63,7.03,4.03.15-.45.36-.88.62-1.28-.22-.02-.43-.2-.47-.56-.12-1.07.08-1.76-.28-2.89-1.15-3.6-5.54-5.14-8.72-3.06Z"/>
      <path class="cls-2" d="M4.4,31.18c-.09.34-.58.45-.82.21-.09-.09-.14-.33-.15-.46-.26-2.84.2-6.06,0-8.93-.13-.6-1.11-1.89-1.14-2.41-.03-.49.58-.75.94-.24.17.24,1.15,2.23,1.18,2.45v9.39ZM14.77,22v9.06c-.06.63-.92.62-.98,0v-9.32c.03-.16,1.1-2.32,1.23-2.46.21-.25.51-.31.76-.08.05.05.14.21.15.28.05.41-1.04,1.99-1.16,2.52Z"/>
      <path class="cls-1" d="M29.43,15.58c-.5.83-1.19,1.54-2.03,1.99,0,.44-.13,1.35.21,1.67.09.08.27.15.38.2.53.26,1.4.55,2.26.88-.92-1.35-1.19-3.13-.82-4.74Z"/>
      <path class="cls-1" d="M27.68,16.2c1.51-1.29,2.62-4.69.33-5.7-1.69-.74-3.93-.57-5.5-1.74-.56.75-1.19,1.57-2.1,1.9-.55.2-1.66.06-1.59.88.05.53.44.57.87.68.39.37.28,1.09.42,1.65.85,3.31,4.97,4.54,7.57,2.33Z"/>
      <path class="cls-1" d="M5.14,17.24l1.66,2.1c.07.05.13.03.2,0,.08-.03,1.29-.9,1.29-.98l-2.49-2.1-.65.97Z"/>
      <path class="cls-1" d="M26.42,19.02v-1c-1.17.42-2.45.39-3.63,0v1.13c0,.29-.56,1.02-.9,1.08-.07.13.4.73.51.86.6.77,1.36,1.45,2.22,1.9,1.15-.61,2.16-1.64,2.76-2.77-.39-.05-.97-.85-.97-1.2Z"/>
    </g>
  </g>
</svg>