<?xml version="1.0" encoding="UTF-8"?>
<svg id="Capa_2" data-name="Capa 2" xmlns="http://www.w3.org/2000/svg" viewBox="0 0 230.71 178.06">
  <defs>
    <style>
      .cls-1 {
        fill: #1d1d1b;
      }

      .cls-2 {
        fill: #007639;
        stroke: #1a1413;
        stroke-miterlimit: 10;
        stroke-width: 5.18px;
      }

      .cls-3 {
        fill: #202026;
      }

      .cls-4 {
        fill: #f2f9fb;
      }
    </style>
  </defs>
  <g id="Capa_1-2" data-name="Capa 1">
    <g>
      <g>
        <path class="cls-1" d="M5.87,165.87c1.07.84,1.61,2.06,1.61,3.68s-.35,2.9-1.05,3.87c-.65.9-1.56,1.35-2.72,1.35s-1.98-.42-2.58-1.26c-.75-1.03-1.12-2.26-1.12-3.68v-.97h1.61v.87c0,1.03.19,1.81.56,2.32.37.52.84.77,1.4.77.74,0,1.3-.26,1.68-.77.42-.58.63-1.32.63-2.23,0-.97-.33-1.74-.98-2.32-1.16-1.03-2.26-2.13-3.28-3.29-.75-.84-1.14-1.97-1.19-3.39-.05-1.42.3-2.61,1.05-3.58.7-.9,1.47-1.35,2.3-1.35,1.02,0,1.82.39,2.37,1.16.7.97,1.02,2.32.98,4.06h-1.61c.09-1.1-.09-1.97-.56-2.61-.33-.45-.72-.68-1.19-.68s-.86.23-1.19.68c-.42.58-.63,1.26-.63,2.03,0,.84.33,1.64.98,2.42.98,1.16,1.96,2.13,2.93,2.9Z"/>
        <path class="cls-1" d="M15.23,173.51c-.61.84-1.37,1.26-2.3,1.26-1.02,0-1.84-.42-2.44-1.26-.88-1.23-1.33-3-1.33-5.32s.4-4.13,1.19-5.22c.7-.97,1.54-1.45,2.51-1.45.79,0,1.51.39,2.17,1.16.84.97,1.23,2.81,1.19,5.51h-5.52c0,2.13.28,3.48.84,4.06.33.45.79.68,1.4.68.51,0,.93-.23,1.26-.68.28-.39.44-1.06.49-2.03h1.61c-.14,1.42-.49,2.52-1.05,3.29ZM14.6,166.64c.05-1.29-.16-2.23-.63-2.81-.42-.52-.84-.74-1.26-.68-.47.06-.91.39-1.33.97-.37.52-.61,1.35-.7,2.52h3.91Z"/>
        <path class="cls-1" d="M25.63,174.77h-1.4v-9.96c0-.52-.09-.9-.28-1.16-.14-.19-.33-.29-.56-.29s-.47.16-.7.48c-.33.45-.49,1.16-.49,2.13v8.8h-1.4v-10.06c0-.52-.07-.87-.21-1.06s-.3-.29-.49-.29c-.28,0-.54.16-.77.48-.33.45-.49,1.16-.49,2.13v8.8h-1.4v-13.25h1.4v1.64c.46-1.1,1.07-1.64,1.82-1.64s1.23.55,1.47,1.64c.46-1.1,1.07-1.64,1.82-1.64.56,0,.98.19,1.26.58s.42,1,.42,1.84v10.84Z"/>
        <path class="cls-1" d="M31.22,155.9v2.52h-1.4v-2.52h1.4ZM31.22,174.77h-1.4v-13.25h1.4v13.25Z"/>
        <path class="cls-1" d="M40.23,174.77h-1.4v-18.86h1.4v18.86Z"/>
        <path class="cls-1" d="M49.17,174.77h-1.4v-18.86h1.4v18.86Z"/>
        <path class="cls-1" d="M59.93,173.51c-.61.84-1.37,1.26-2.3,1.26-1.02,0-1.84-.42-2.44-1.26-.88-1.23-1.33-3-1.33-5.32s.4-4.13,1.19-5.22c.7-.97,1.54-1.45,2.51-1.45.79,0,1.51.39,2.17,1.16.84.97,1.23,2.81,1.19,5.51h-5.52c0,2.13.28,3.48.84,4.06.33.45.79.68,1.4.68.51,0,.93-.23,1.26-.68.28-.39.44-1.06.49-2.03h1.61c-.14,1.42-.49,2.52-1.05,3.29ZM59.3,166.64c.05-1.29-.16-2.23-.63-2.81-.42-.52-.84-.74-1.26-.68-.47.06-.91.39-1.33.97-.37.52-.61,1.35-.7,2.52h3.91Z"/>
        <path class="cls-1" d="M68.94,161.52v2.32c-1.72-.45-2.98.81-3.77,3.77v7.16h-1.4v-13.25h1.4v2.81c1.02-2.19,2.28-3.13,3.77-2.81Z"/>
        <path class="cls-1" d="M75.3,161.52c.98,0,1.84.52,2.58,1.55.74,1.03,1.12,2.74,1.12,5.13s-.37,4-1.12,5.03c-.75,1.03-1.61,1.55-2.58,1.55s-1.91-.52-2.65-1.55c-.75-1.03-1.12-2.71-1.12-5.03s.37-4.1,1.12-5.13c.74-1.03,1.63-1.55,2.65-1.55ZM73.83,164.13c-.51.71-.77,2.06-.77,4.06s.26,3.26.77,3.97c.42.58.91.87,1.47.87.51,0,.98-.29,1.4-.87.51-.71.77-2.03.77-3.97s-.26-3.35-.77-4.06c-.42-.58-.88-.87-1.4-.87-.56,0-1.05.29-1.47.87Z"/>
        <path class="cls-1" d="M92.62,174.77c-.7,0-1.37-.45-2.03-1.35-.79-1.1-1.19-2.93-1.19-5.51,0-2.13.44-3.81,1.33-5.03.65-.9,1.37-1.35,2.17-1.35.84,0,1.58.48,2.24,1.45v-7.06h1.4v18.86h-1.4v-1.93c-.75,1.29-1.58,1.93-2.51,1.93ZM91.85,164.03c-.61.84-.91,2.19-.91,4.06,0,2.13.26,3.55.77,4.26.33.45.74.68,1.26.68.42,0,.84-.29,1.26-.87.6-.84.91-2.26.91-4.26,0-1.81-.3-3.13-.91-3.97-.33-.45-.72-.68-1.19-.68-.42,0-.81.26-1.19.77Z"/>
        <path class="cls-1" d="M104.63,173.51c-.61.84-1.37,1.26-2.3,1.26-1.02,0-1.84-.42-2.44-1.26-.88-1.23-1.33-3-1.33-5.32s.4-4.13,1.19-5.22c.7-.97,1.54-1.45,2.51-1.45.79,0,1.51.39,2.17,1.16.84.97,1.23,2.81,1.19,5.51h-5.52c0,2.13.28,3.48.84,4.06.33.45.79.68,1.4.68.51,0,.93-.23,1.26-.68.28-.39.44-1.06.49-2.03h1.61c-.14,1.42-.49,2.52-1.05,3.29ZM104,166.64c.05-1.29-.16-2.23-.63-2.81-.42-.52-.84-.74-1.26-.68-.47.06-.91.39-1.33.97-.37.52-.61,1.35-.7,2.52h3.91Z"/>
        <path class="cls-1" d="M120.63,155.9v2.52h-1.4v-2.52h1.4ZM120.63,174.77h-1.4v-13.25h1.4v13.25Z"/>
        <path class="cls-1" d="M130.54,163.84c-.28-.39-.65-.58-1.12-.58-.51,0-1.02.35-1.54,1.06-.65.9-.98,2.06-.98,3.48v6.97h-1.4v-13.25h1.4v2.52c.23-.45.51-.9.84-1.35.56-.77,1.26-1.16,2.1-1.16.74,0,1.35.32,1.82.97.46.64.7,1.52.7,2.61v9.67h-1.4v-9.48c0-.58-.14-1.06-.42-1.45Z"/>
        <path class="cls-1" d="M137.04,174.77l-2.93-13.25h1.47l2.17,10.06h.14l2.17-10.06h1.47l-2.93,13.25h-1.54Z"/>
        <path class="cls-1" d="M149.33,173.51c-.61.84-1.37,1.26-2.3,1.26-1.02,0-1.84-.42-2.44-1.26-.88-1.23-1.33-3-1.33-5.32s.4-4.13,1.19-5.22c.7-.97,1.54-1.45,2.51-1.45.79,0,1.51.39,2.17,1.16.84.97,1.23,2.81,1.19,5.51h-5.52c0,2.13.28,3.48.84,4.06.33.45.79.68,1.4.68.51,0,.93-.23,1.26-.68.28-.39.44-1.06.49-2.03h1.61c-.14,1.42-.49,2.52-1.05,3.29ZM148.71,166.64c.05-1.29-.16-2.23-.63-2.81-.42-.52-.84-.74-1.26-.68-.47.06-.91.39-1.33.97-.37.52-.61,1.35-.7,2.52h3.91Z"/>
        <path class="cls-1" d="M156.88,163.84c-.28-.39-.65-.58-1.12-.58-.61,0-1.02.16-1.26.48-.28.39-.42.81-.42,1.26,0,.32.12.64.35.97.33.45,1.02.94,2.1,1.45.84.39,1.44.84,1.82,1.35.42.58.63,1.35.63,2.32,0,.9-.23,1.68-.7,2.32-.65.9-1.49,1.35-2.51,1.35-1.12,0-1.96-.39-2.51-1.16-.61-.84-.88-2.16-.84-3.97h1.4c0,1.42.14,2.32.42,2.71.33.45.81.68,1.47.68s1.14-.23,1.47-.68c.28-.39.42-.84.42-1.35,0-.39-.14-.77-.42-1.16s-.81-.77-1.61-1.16c-1.16-.58-1.93-1.13-2.3-1.64-.42-.58-.63-1.29-.63-2.13s.26-1.61.77-2.32c.51-.71,1.3-1.06,2.37-1.06.93,0,1.68.39,2.24,1.16.56.77.81,1.71.77,2.81h-1.4c-.05-.71-.21-1.26-.49-1.64Z"/>
        <path class="cls-1" d="M163.16,163.06h-2.23v-1.55h2.23v-4.26h1.4v4.26h3.14v1.55h-3.14v8.8c0,.71.37,1.06,1.12,1.06.79,0,1.61-.26,2.44-.77v2.03c-1.16.39-2.05.58-2.65.58-1.54,0-2.3-.84-2.3-2.52v-9.19Z"/>
        <path class="cls-1" d="M174.27,155.9v2.52h-1.4v-2.52h1.4ZM174.27,174.77h-1.4v-13.25h1.4v13.25Z"/>
        <path class="cls-1" d="M179.51,165.87c0-1.42.28-2.52.84-3.29.51-.71,1.16-1.06,1.96-1.06s1.42.32,1.89.97c.7-.77,1.47-1.1,2.3-.97v1.84c-.65-.26-1.28-.26-1.89,0,.33.52.49,1.35.49,2.52,0,1.23-.28,2.23-.84,3-.51.71-1.16,1.06-1.96,1.06-.42,0-.81-.13-1.19-.39-.42.32-.63.68-.63,1.06,0,.26.09.52.28.77.23.32.88.48,1.96.48,1.44,0,2.4.32,2.86.97.42.58.63,1.23.63,1.93,0,.84-.21,1.55-.63,2.13-.56.77-1.56,1.16-3,1.16-1.54,0-2.58-.39-3.14-1.16-.37-.52-.56-1.06-.56-1.64,0-.84.42-1.61,1.26-2.32-.61-.45-.91-1.1-.91-1.93s.37-1.58,1.12-2.23c-.56-.71-.84-1.68-.84-2.9ZM180.14,175.06c0,.26.12.55.35.87.37.52,1.09.77,2.17.77.93,0,1.56-.23,1.89-.68.23-.32.35-.68.35-1.06,0-.32-.09-.61-.28-.87-.23-.32-.77-.48-1.61-.48-.42,0-1.05-.06-1.89-.19-.65.52-.98,1.06-.98,1.64ZM181.32,163.74c-.28.39-.42,1.1-.42,2.13,0,.84.14,1.45.42,1.84.28.39.61.58.98.58s.7-.19.98-.58.42-1,.42-1.84c0-1.03-.14-1.74-.42-2.13-.28-.39-.61-.58-.98-.58s-.7.19-.98.58Z"/>
        <path class="cls-1" d="M190.61,174.77c-.84,0-1.51-.35-2.03-1.06-.47-.64-.7-1.45-.7-2.42,0-1.03.26-1.9.77-2.61.47-.64,1-1.1,1.61-1.35,1.58-.71,2.44-1.19,2.58-1.45.23-.39.35-.77.35-1.16s-.14-.74-.42-1.06c-.23-.26-.65-.39-1.26-.39-.47,0-.84.19-1.12.58-.37.52-.58,1.19-.63,2.03h-1.54c.05-1.29.37-2.35.98-3.19.56-.77,1.33-1.16,2.3-1.16,1.12,0,1.91.32,2.37.97.47.64.7,1.45.7,2.42v7.64c0,.77.19,1.52.56,2.23h-1.68c-.19-.26-.28-.74-.28-1.45-.7.97-1.56,1.45-2.58,1.45ZM193.2,167.51c-.56.45-1.21.84-1.96,1.16-.56.26-1,.61-1.33,1.06-.23.32-.35.77-.35,1.35,0,.64.12,1.13.35,1.45s.61.48,1.12.48c.84,0,1.56-.68,2.17-2.03v-3.48Z"/>
        <path class="cls-1" d="M201.65,163.84c-.28-.39-.63-.58-1.05-.58-.51,0-.98.29-1.4.87-.56.77-.84,2.23-.84,4.35,0,1.74.26,2.97.77,3.68.42.58.88.87,1.4.87.47,0,.88-.26,1.26-.77.47-.64.68-1.68.63-3.1h1.61c.05,1.81-.3,3.22-1.05,4.26-.65.9-1.47,1.35-2.44,1.35s-1.84-.52-2.58-1.55c-.79-1.1-1.19-2.68-1.19-4.74,0-2.39.44-4.19,1.33-5.42.75-1.03,1.58-1.55,2.51-1.55s1.68.39,2.24,1.16c.61.84.93,1.97.98,3.39h-1.54c-.09-1.03-.3-1.77-.63-2.23Z"/>
        <path class="cls-1" d="M210.03,155.9v2.52h-1.4v-2.52h1.4ZM210.03,174.77h-1.4v-13.25h1.4v13.25Z"/>
        <path class="cls-1" d="M222.04,168.19c0,2.32-.37,4-1.12,5.03-.75,1.03-1.61,1.55-2.58,1.55s-1.91-.52-2.65-1.55c-.75-1.03-1.12-2.71-1.12-5.03s.37-4.1,1.12-5.13,1.63-1.55,2.65-1.55,1.84.52,2.58,1.55c.75,1.03,1.12,2.74,1.12,5.13ZM218.34,163.26c-.56,0-1.05.29-1.47.87-.51.71-.77,2.06-.77,4.06s.26,3.26.77,3.97c.42.58.91.87,1.47.87.51,0,.98-.29,1.4-.87.51-.71.77-2.03.77-3.97s-.26-3.35-.77-4.06c-.42-.58-.88-.87-1.4-.87ZM220.86,157.65l-2.93,3.19h-1.19l2.03-3.19h2.1Z"/>
        <path class="cls-1" d="M228.89,163.84c-.28-.39-.65-.58-1.12-.58-.51,0-1.02.35-1.54,1.06-.65.9-.98,2.06-.98,3.48v6.97h-1.4v-13.25h1.4v2.52c.23-.45.51-.9.84-1.35.56-.77,1.26-1.16,2.1-1.16.75,0,1.35.32,1.82.97.47.64.7,1.52.7,2.61v9.67h-1.4v-9.48c0-.58-.14-1.06-.42-1.45Z"/>
      </g>
      <g>
        <path class="cls-3" d="M23.19,26.37c-.72-.32-1.46-.55-2.21-.75-5.63-1.48-11.52-1.52-17.23-1.53-.19,0-3.65,0-3.65.04v107.73s15.79,1.37,20.53,0c4.74-1.37,11.45-9.02,11.45-23.52v-55.77c0-3.95.1-7.66-.78-11.46-.57-2.49-1.24-4.93-2.17-7.22-1.12-2.77-2.6-5.53-4.73-6.9-.4-.25-.8-.47-1.22-.65ZM20.83,112.73c-.6,2.17-1.58,3.99-3.2,5.03-1.95,1.25-4.46,1.15-6.47.17-.17-.08,0-4.01,0-4.38,0-2.9,0-5.79,0-8.69,0-15.23,0-30.47,0-45.7,0-1.17,0-20.8,0-20.8,2.24,0,4.95-.67,6.94,1.08,2.56,2.24,2.59,6.32,2.75,10.07.19,4.25.35,8.5.49,12.75.27,8.26.45,16.7.48,25.04.02,4.6-.13,9.21-.09,13.8.03,3.47.11,8.03-.89,11.63Z"/>
        <polygon class="cls-3" points="124.39 24.09 124.39 38.23 136.39 38.23 136.39 132.48 147.2 132.48 147.2 38.23 159.34 38.23 159.34 24.09 124.39 24.09"/>
        <path class="cls-3" d="M183.47,24.09h-14.66l-11.85,108.39h10.66l1.18-22.63s13.11-.19,13.55-.2c-.52.02,1.85,22.84,1.85,22.84h11.7l-12.44-108.39ZM170.74,95.49l5.03-52.29,5.63,52.29h-10.66Z"/>
        <polygon class="cls-3" points="213.38 118.46 213.38 24.09 202.57 24.09 202.57 132.48 213.38 132.48 230.71 132.48 230.71 118.46 213.38 118.46"/>
        <g>
          <rect class="cls-2" x="35.26" y="2.59" width="85.88" height="143.14"/>
          <path class="cls-3" d="M80.31,72.94c5.21-.11,10.43-.11,15.64,0,.08,10.08.17,20.17.25,30.25.07,8.29-.09,17.45-4.12,23.59-2.75,4.18-6.92,6.17-11,6.42-4.79.29-9.75-1.74-13.23-6.29-6.05-7.91-4.17-20.55-4.12-30.9.07-13.69.1-27.39-.34-41.07-.26-7.89.18-16.24,3.28-22.87,2.99-6.39,8.45-10.47,13.94-10.25,5.5.22,10.82,4.82,13.27,11.64,1.46,4.06,1.91,8.66,2.12,13.18.18,3.72.22,7.46.11,11.18-3.41.04-6.82-.06-10.22-.3-.39-.03-.83-.09-1.09-.49-.21-.33-.25-.79-.28-1.23-.2-3.2-.17-6.42.09-9.61.14-1.74.35-3.51.1-5.22-.99-6.81-6.86-5.88-9.02-1.18,0,0-.99,6.56-.59,14.22.97,18.77.11,37.95.03,56.76,0,1.9,0,3.87.55,5.61.92,2.88,3.4,4.5,5.67,3.71,4.26-1.48,3.74-8.06,3.86-12.79.17-6.8.18-13.6.02-20.4-1.78-.15-3.55-.3-5.33-.44.03-4.51.15-9.02.38-13.52Z"/>
          <rect class="cls-4" x="43.11" y="24.09" width="11.99" height="108.39"/>
          <rect class="cls-4" x="104.36" y="24.09" width="11.58" height="109.14"/>
          <path class="cls-4" d="M84.81,57.27c3.81.01,7.62.02,11.43.03.25-5.55.44-11.16-.31-16.62-.75-5.46-2.53-10.82-5.62-14.36-3.11-3.55-7.32-4.96-11.33-4.42-8.33,1.12-15.29,8.69-15.29,20.74,0,13.24,0,26.48,0,39.73,0,6.3,0,12.6,0,18.9,0,10.52-.75,24.8,7.81,29.83,4.54,2.67,9.96,3.38,14.68,1.18,4.66-2.17,9.79-8.64,10.09-15.81.39-9.43,0-43.75,0-43.75l-16.2-.55s0,14.07,0,14.22c.28.53,5.35,0,5.35.41,0,0-.1,27.07-.1,27.07,0,0-.92,6.7-5.25,6.02-4.33-.68-4.72-6.56-4.72-6.56-.02-12.92-.04-25.84-.05-38.75,0-7.13-.02-14.27-.03-21.4,0-5.5-1.52-17.67,5.13-17.04,2.95.28,3.9,2.35,4.1,6.02.27,5.03.37,10.07.33,15.11Z"/>
        </g>
      </g>
    </g>
  </g>
</svg>