<?xml version="1.0" encoding="UTF-8"?>
<svg id="Capa_2" data-name="Capa 2" xmlns="http://www.w3.org/2000/svg" viewBox="0 0 26.08 30.2">
  <defs>
    <style>
      .cls-1 {
        fill: #245426;
      }
    </style>
  </defs>
  <g id="Capa_1-2" data-name="Capa 1">
    <g>
      <path class="cls-1" d="M13.93,0c7.29.66,11.84,8.52,8.63,15.18l3.52,12.19-5.63-1.33-4.07,4.16-2.68-9.05-1.27-.04-2.69,9.09-4.1-4.17c-1.77.38-3.51.88-5.28,1.25-.08.02-.41.14-.36,0,1.11-4.08,2.46-8.11,3.47-12.2C.33,8.48,4.76.68,12.06.05l.09-.05h1.77ZM12.62,1.79c-6.94.36-10.8,8.24-6.7,13.92,3.51,4.86,10.83,4.8,14.28-.09,4.18-5.95-.35-14.21-7.58-13.83ZM23.54,24.89l-2.24-7.73c-1.53,1.77-3.51,3.17-5.84,3.66l1.71,5.9.15-.06,2.55-2.59,3.67.82ZM10.56,20.82c-2.28-.51-4.26-1.86-5.78-3.6l-2.24,7.67,3.68-.82,2.55,2.59.15.06,1.65-5.9Z"/>
      <path class="cls-1" d="M12.68,4.03c5.24-.28,8.68,5.54,5.88,10.01-2.61,4.16-8.78,4.03-11.2-.23-2.41-4.23.5-9.51,5.33-9.78ZM12.38,5.86c-2.58.29-4.46,2.9-4.05,5.43.69,4.29,6.36,5.48,8.69,1.8,2.17-3.43-.64-7.68-4.64-7.23Z"/>
      <rect class="cls-1" x="12.1" y="8.61" width="1.83" height="3.89"/>
    </g>
  </g>
</svg>