<?xml version="1.0" encoding="UTF-8"?>
<svg id="Capa_2" data-name="Capa 2" xmlns="http://www.w3.org/2000/svg" viewBox="0 0 13.83 17.04">
  <defs>
    <style>
      .cls-1 {
        fill: #245426;
      }
    </style>
  </defs>
  <g id="Capa_1-2" data-name="Capa 1">
    <path class="cls-1" d="M13.71,15.61l-3.3-5.29c2.42-2.5,2.24-6.49-.35-8.78-.53-.47-1.15-.82-1.8-1.11L6.55.04C4.11-.29,1.19,1.56.4,3.89c-.18.52-.22,1.16-.39,1.69,0,.29-.01.58,0,.87.22,4.34,4.96,7.06,8.82,5.04l3.25,5.15c.77.95,2.16.05,1.64-1.03ZM10.17,8.9c-2.41,3.63-8.09,2.5-8.95-1.78C.56,3.84,3.37.73,6.69,1.22c3.66.54,5.55,4.55,3.48,7.67Z"/>
  </g>
</svg>