<?xml version="1.0" encoding="UTF-8"?>
<svg id="Capa_2" data-name="Capa 2" xmlns="http://www.w3.org/2000/svg" viewBox="0 0 31.42 31.06">
  <defs>
    <style>
      .cls-1 {
        fill: #fff;
      }

      .cls-2 {
        fill: #245426;
      }
    </style>
  </defs>
  <g id="Capa_1-2" data-name="Capa 1">
    <g>
      <ellipse class="cls-1" cx="15.71" cy="15.53" rx="15.71" ry="15.53"/>
      <path class="cls-2" d="M5.57,24.24c.6,0,1.21,0,1.81,0-.09,0,.58-2.57.66-2.79.34-.9.76-1.79,1.39-2.52,1.09-1.28,2.73-2.44,4.43-2.67,2.29-.31,4.75-.05,6.68,1.32,2.1,1.48,3.39,4.12,3.5,6.67.61,0,1.21,0,1.82,0,.13,0-.5-2.94-.57-3.15-.56-1.81-1.66-3.46-3.12-4.67-1.7-1.41-3.74-1.99-5.93-2.03-2.2-.04-4.19.07-6.06,1.37-1.41.98-2.62,2.28-3.43,3.8-.42.78-.73,1.62-.91,2.48-.04.21-.35,2.19-.27,2.19Z"/>
      <ellipse class="cls-2" cx="15.71" cy="9.96" rx="5.07" ry="4.79"/>
      <ellipse class="cls-1" cx="15.72" cy="9.96" rx="3.18" ry="3"/>
    </g>
  </g>
</svg>