<?xml version="1.0" encoding="UTF-8"?>
<svg id="Capa_2" data-name="Capa 2" xmlns="http://www.w3.org/2000/svg" viewBox="0 0 112.75 102">
  <defs>
    <style>
      .cls-1 {
        fill: #fadb02;
      }

      .cls-2 {
        fill: #026634;
      }

      .cls-3 {
        fill: #245426;
      }
    </style>
  </defs>
  <g id="Capa_1-2" data-name="Capa 1">
    <g>
      <rect class="cls-3" width="112.75" height="98.09" rx="15.2" ry="15.2"/>
      <path class="cls-2" d="M79.02,63.57c-1.45,2.92-4.43,4.77-7.7,4.77h-25.72c-3.06,0-5.89-1.63-7.43-4.28L8.49,12.9C5.16,7.18,9.3,0,15.92,0h80.79c6.38,0,10.53,6.7,7.7,12.41l-25.39,51.16Z"/>
      <polygon class="cls-1" points="65 102 65 68.35 51.7 68.35 51.7 102 58.35 92.9 65 102"/>
      <ellipse class="cls-1" cx="90.87" cy="42.63" rx="12.24" ry="5.9" transform="translate(2.61 90.43) rotate(-53.57)"/>
      <ellipse class="cls-1" cx="23.19" cy="42.63" rx="5.9" ry="12.24" transform="translate(-20.78 22.1) rotate(-36.43)"/>
    </g>
  </g>
</svg>